<svg xmlns="http://www.w3.org/2000/svg" xml:space="preserve" width="32" height="32"><path fill="#263238" d="M27 27a.5.5 0 0 1-.5-.5v-13a.5.5 0 0 1 1 0v13a.5.5 0 0 1-.5.5M5 27a.5.5 0 0 1-.5-.5v-13a.5.5 0 0 1 1 0v13a.5.5 0 0 1-.5.5M16 14.432a.5.5 0 0 1-.282-.087L3.553 6.021a.5.5 0 1 1 .565-.825L16 13.326l8.958-6.129a.5.5 0 0 1 .565.825l-9.24 6.322a.5.5 0 0 1-.283.088"/><path fill="#263238" d="M28.5 27h-25A2.503 2.503 0 0 1 1 24.5v-17a.5.5 0 0 1 1 0v17c0 .827.673 1.5 1.5 1.5h25c.827 0 1.5-.673 1.5-1.5v-17c0-.827-.673-1.5-1.5-1.5a.5.5 0 0 1 0-1C29.878 5 31 6.122 31 7.5v17c0 1.378-1.122 2.5-2.5 2.5"/><path fill="#263238" d="M16 19a.5.5 0 0 1-.284-.088L2.066 9.498A2.47 2.47 0 0 1 1 7.467 2.47 2.47 0 0 1 3.467 5h25.065a2.467 2.467 0 0 1 1.402 4.498l-13.65 9.414A.5.5 0 0 1 16 19M3.467 6a1.469 1.469 0 0 0-.833 2.675L16 17.893l13.366-9.218A1.467 1.467 0 0 0 28.533 6z"/></svg>