<svg xmlns="http://www.w3.org/2000/svg" xml:space="preserve" width="32" height="32"><path fill="#263238" d="M9.984 31.001q-.238.002-.503-.081c-.904-.275-1.109-1.335-1.086-1.918l.004-2.529c-6.861-2.181-6.706-9.549-6.631-13.122.078-3.707.78-6.334 2.209-8.27a.499.499 0 1 1 .804.594c-1.301 1.762-1.94 4.208-2.014 7.697-.077 3.64-.22 10.413 6.25 12.243a.5.5 0 0 1 .381.485l-.005 2.922c-.005.186.045.84.382.942.438.14.746-.154 1.453-.956q.204-.234.431-.48a87 87 0 0 0 1.676-1.896.5.5 0 0 1 .42-.171c4.857.406 8.41-.602 8.443-.612a7 7 0 0 1 .381-.104c1.545-.394 5.651-1.439 6.393-7.522.803-6.535-.139-11.337-2.652-13.522-.489-.451-3.21-2.652-9.794-2.681-.074-.004-4.462-.246-8.09 1.111a.499.499 0 1 1-.351-.936c3.831-1.433 8.285-1.184 8.473-1.174 6.925.029 9.903 2.45 10.429 2.935 2.761 2.401 3.822 7.515 2.978 14.389-.825 6.762-5.577 7.972-7.138 8.37q-.205.051-.322.087c-.723.229-4.247.998-8.579.677a79 79 0 0 1-1.533 1.73q-.22.238-.415.462c-.578.655-1.172 1.33-1.994 1.33"/><path fill="#263238" d="M20.258 22.6a2 2 0 0 1-.61-.096l-.171-.065c-1.376-.443-4.095-1.89-5.786-3.237a15.4 15.4 0 0 1-2.483-2.483 19 19 0 0 1-1.79-2.707c-1.221-2.207-1.505-3.222-1.517-3.264-.461-1.43.854-2.783 2.122-3.5l.144-.065c.679-.302 1.397-.145 1.852.401 0 0 .716.856 1.022 1.278.302.41.698 1.058.89 1.392.482.862.184 1.751-.339 2.152l-.671.537c-.11.089-.117.325-.114.358.008 0 .998 3.465 4.4 4.334.052-.014.211-.044.279-.129l.544-.679c.433-.567 1.401-.747 2.141-.334.738.417 1.884 1.173 2.693 1.936.532.432.678 1.126.372 1.814v.019l-.065.126c-.296.519-1.378 2.212-2.913 2.212m-.152-1.012c.792.125 1.675-.809 2.159-1.633l.027-.056c.157-.301.127-.543-.088-.718-.639-.602-1.619-1.305-2.524-1.815-.337-.189-.749-.07-.863.079l-.551.688c-.354.442-.903.49-1.123.49l-.104-.004c-4.084-1.038-5.169-4.978-5.213-5.145-.021-.164-.068-.878.47-1.31l.68-.544c.132-.101.322-.45.086-.872-.215-.375-.58-.959-.828-1.295a32 32 0 0 0-.983-1.227c-.192-.231-.438-.256-.738-.099l-.102.053c-.758.455-1.84 1.386-1.551 2.284.008.029.284.987 1.434 3.066a18 18 0 0 0 1.697 2.569 14.3 14.3 0 0 0 2.321 2.321c1.793 1.428 4.565 2.818 5.612 3.111zM23 13.5a.5.5 0 0 1-.5-.5c0-3.033-2.467-5.5-5.5-5.5a.5.5 0 0 1 0-1c3.584 0 6.5 2.916 6.5 6.5a.5.5 0 0 1-.5.5"/><path fill="#263238" d="M21 13.5a.5.5 0 0 1-.5-.5c0-1.93-1.57-3.5-3.5-3.5a.5.5 0 0 1 0-1c2.481 0 4.5 2.019 4.5 4.5a.5.5 0 0 1-.5.5"/><path fill="#263238" d="M19 13.5a.5.5 0 0 1-.5-.5c0-.827-.673-1.5-1.5-1.5a.5.5 0 0 1 0-1c1.378 0 2.5 1.122 2.5 2.5a.5.5 0 0 1-.5.5"/><circle cx="6.5" cy="3.5" r=".5" fill="#263238"/></svg>